<svg width="1650" height="1655" xmlns="http://www.w3.org/2000/svg" xmlns:xlink="http://www.w3.org/1999/xlink" xml:space="preserve" overflow="hidden"><g transform="translate(-1375 -412)"><g><path d="M1375 796.657C1375 584.769 1546.77 413 1758.66 413L2641.34 413C2853.23 413 3025 584.769 3025 796.657L3025 1679.34C3025 1891.23 2853.23 2063 2641.34 2063L1758.66 2063C1546.77 2063 1375 1891.23 1375 1679.34Z" fill="#F2F2F2" fill-rule="evenodd" fill-opacity="1"/><g><g><path d="M579.299 991.92 721.382 1076.4 612.96 1142.69 697.167 1519.59 768.996 1577.3 1311.38 1577.68 1401.94 1520.08 1443.14 1161.09 1319.41 1076.56 1463.88 980.084 1503.68 633.157 499.163 633.048 579.299 991.92ZM1209.85 1326.9 1048.06 1443.47 873.889 1326.74 859.121 1210.12 995.341 1210.18 1037.47 1243.13 1079.77 1210.23 1212.29 1210.28 1209.85 1326.9ZM1229.77 835.233 863.953 958.802 841.802 762.807 1229.77 835.233Z" fill="#000000" fill-rule="nonzero" fill-opacity="1" transform="matrix(1.00078 0 0 1 1212.56 247.485)"/><path d="M652.105 512.193 472.18 512.193 484.179 565.889 660.954 565.889Z" fill="#000000" fill-rule="nonzero" fill-opacity="1" transform="matrix(1.00078 0 0 1 1212.56 247.485)"/><path d="M640.975 445.034 457.141 445.034 469.14 498.729 649.879 498.729Z" fill="#000000" fill-rule="nonzero" fill-opacity="1" transform="matrix(1.00078 0 0 1 1212.56 247.485)"/><path d="M663.18 579.407 487.165 579.353 495.634 617.303 669.424 617.358Z" fill="#000000" fill-rule="nonzero" fill-opacity="1" transform="matrix(1.00078 0 0 1 1212.56 247.485)"/><path d="M633.32 398.56 446.771 398.56 454.155 431.569 638.749 431.569Z" fill="#000000" fill-rule="nonzero" fill-opacity="1" transform="matrix(1.00078 0 0 1 1212.56 247.485)"/><path d="M898.863 498.729 1079.55 498.729 1078.14 445.034 894.303 445.034Z" fill="#000000" fill-rule="nonzero" fill-opacity="1" transform="matrix(1.00078 0 0 1 1212.56 247.485)"/><path d="M908.907 617.358 1082.75 617.358 1081.72 579.407 905.704 579.407Z" fill="#000000" fill-rule="nonzero" fill-opacity="1" transform="matrix(1.00078 0 0 1 1212.56 247.485)"/><path d="M1077.76 431.569 1077.32 415.39 891.751 415.39 893.162 431.569Z" fill="#000000" fill-rule="nonzero" fill-opacity="1" transform="matrix(1.00078 0 0 1 1212.56 247.485)"/><path d="M904.564 565.943 1081.34 565.943 1079.93 512.248 900.003 512.248Z" fill="#000000" fill-rule="nonzero" fill-opacity="1" transform="matrix(1.00078 0 0 1 1212.56 247.485)"/><path d="M1289.39 617.412 1290.96 579.462 1114.95 579.407 1115.54 617.358Z" fill="#000000" fill-rule="nonzero" fill-opacity="1" transform="matrix(1.00078 0 0 1 1212.56 247.485)"/><path d="M1294.38 498.783 1296.66 445.034 1112.83 445.034 1113.7 498.783Z" fill="#000000" fill-rule="nonzero" fill-opacity="1" transform="matrix(1.00078 0 0 1 1212.56 247.485)"/><path d="M1293.84 512.248 1113.91 512.248 1114.73 565.943 1291.56 565.943Z" fill="#000000" fill-rule="nonzero" fill-opacity="1" transform="matrix(1.00078 0 0 1 1212.56 247.485)"/><path d="M1500.26 579.462 1324.24 579.462 1322.18 617.412 1496.02 617.412Z" fill="#000000" fill-rule="nonzero" fill-opacity="1" transform="matrix(1.00078 0 0 1 1212.56 247.485)"/><path d="M1507.75 512.248 1327.83 512.248 1324.95 565.943 1501.72 565.997Z" fill="#000000" fill-rule="nonzero" fill-opacity="1" transform="matrix(1.00078 0 0 1 1212.56 247.485)"/><path d="M858.253 431.569 852.986 376.843 665.189 376.843 673.659 431.569Z" fill="#000000" fill-rule="nonzero" fill-opacity="1" transform="matrix(1.00078 0 0 1 1212.56 247.485)"/><path d="M683.974 498.729 864.713 498.729 859.556 445.034 675.722 445.034Z" fill="#000000" fill-rule="nonzero" fill-opacity="1" transform="matrix(1.00078 0 0 1 1212.56 247.485)"/><path d="M702.271 617.358 876.06 617.358 872.423 579.407 696.407 579.407Z" fill="#000000" fill-rule="nonzero" fill-opacity="1" transform="matrix(1.00078 0 0 1 1212.56 247.485)"/><path d="M694.344 565.943 871.174 565.943 866.016 512.248 686.092 512.193Z" fill="#000000" fill-rule="nonzero" fill-opacity="1" transform="matrix(1.00078 0 0 1 1212.56 247.485)"/></g></g></g></g></svg>